<?xml version="1.0" encoding="UTF-8" standalone="no"?>
<!-- Created with Inkscape (http://www.inkscape.org/) -->

<svg
   xmlns:dc="http://purl.org/dc/elements/1.1/"
   xmlns:cc="http://creativecommons.org/ns#"
   xmlns:rdf="http://www.w3.org/1999/02/22-rdf-syntax-ns#"
   xmlns:svg="http://www.w3.org/2000/svg"
   xmlns="http://www.w3.org/2000/svg"
   xmlns:sodipodi="http://sodipodi.sourceforge.net/DTD/sodipodi-0.dtd"
   xmlns:inkscape="http://www.inkscape.org/namespaces/inkscape"
   width="100"
   height="100"
   viewBox="0 0 26.458333 26.458334"
   version="1.1"
   id="svg8"
   inkscape:version="0.92.4 (fd57863, 2020-04-02)"
   sodipodi:docname="move_back_1.svg">
  <defs
     id="defs2" />
  <sodipodi:namedview
     id="base"
     pagecolor="#ffffff"
     bordercolor="#666666"
     borderopacity="1.0"
     inkscape:pageopacity="0.0"
     inkscape:pageshadow="2"
     inkscape:zoom="5.6"
     inkscape:cx="112.05959"
     inkscape:cy="49.520668"
     inkscape:document-units="px"
     inkscape:current-layer="layer1"
     showgrid="false"
     units="px"
     showguides="true"
     inkscape:guide-bbox="true"
     inkscape:window-width="1600"
     inkscape:window-height="836"
     inkscape:window-x="0"
     inkscape:window-y="27"
     inkscape:window-maximized="1">
    <sodipodi:guide
       position="3.0238095,13.18192"
       orientation="0,1"
       id="guide838"
       inkscape:locked="false" />
    <sodipodi:guide
       position="-3.6380208,2.8820685"
       orientation="0,1"
       id="guide859"
       inkscape:locked="false" />
    <sodipodi:guide
       position="4.4412202,23.481771"
       orientation="0,1"
       id="guide861"
       inkscape:locked="false" />
  </sodipodi:namedview>
  <metadata
     id="metadata5">
    <rdf:RDF>
      <cc:Work
         rdf:about="">
        <dc:format>image/svg+xml</dc:format>
        <dc:type
           rdf:resource="http://purl.org/dc/dcmitype/StillImage" />
        <dc:title></dc:title>
      </cc:Work>
    </rdf:RDF>
  </metadata>
  <g
     inkscape:label="Ebene 1"
     inkscape:groupmode="layer"
     id="layer1"
     transform="translate(0,-270.54165)">
    <path
       style="fill:#fefefe;fill-opacity:1;stroke:#000000;stroke-width:0.5291667;stroke-linecap:butt;stroke-linejoin:miter;stroke-miterlimit:4;stroke-dasharray:none;stroke-opacity:1"
       d="M 0.76194953,293.05957 C 0.33672423,280.69465 8.6802683,273.79682 19.614028,273.79682 h -0.158739"
       id="path42"
       inkscape:connector-curvature="0"
       sodipodi:nodetypes="ccc" />
    <path
       style="opacity:0;fill:none;fill-opacity:1;stroke:none;stroke-width:3.0162499;stroke-linecap:butt;stroke-miterlimit:4;stroke-dasharray:none;stroke-opacity:1"
       d="m 13.119591,275.7121 c -0.0351,-0.0845 -0.111633,-0.31302 -0.170066,-0.50791 -0.208906,-0.69676 -0.534155,-1.37662 -1.243184,-2.59859 -0.06785,-0.11693 -0.123621,-0.23127 -0.123934,-0.25408 -3.18e-4,-0.0228 0.08979,-0.0275 0.200231,-0.0105 0.478096,0.0737 5.963346,1.47793 7.116416,1.8218 0.191554,0.0571 0.329752,0.12092 0.307106,0.14176 -0.02265,0.0208 -0.253786,0.0634 -0.513645,0.0946 -1.484623,0.17829 -2.716751,0.49363 -4.644705,1.1887 -0.423747,0.15277 -0.791587,0.27777 -0.817422,0.27777 -0.02583,0 -0.07569,-0.0691 -0.110797,-0.15355 z"
       id="path867"
       inkscape:connector-curvature="0" />
    <path
       style="opacity:0.61000001;fill:none;fill-opacity:1;stroke:none;stroke-width:3.0162499;stroke-linecap:butt;stroke-miterlimit:4;stroke-dasharray:none;stroke-opacity:1"
       d="m 13.146899,275.7822 c -0.02456,-0.0459 -0.132339,-0.35295 -0.239499,-0.68233 -0.199808,-0.61416 -0.601137,-1.46521 -1.06398,-2.25625 -0.14387,-0.24589 -0.261582,-0.46623 -0.261582,-0.48965 0,-0.0235 0.0926,-0.0287 0.206801,-0.0116 0.636382,0.0954 7.169255,1.78835 7.398925,1.91735 0.103048,0.0579 0.038,0.0742 -0.660414,0.1656 -1.454538,0.19037 -2.583539,0.48196 -4.406661,1.13814 -0.461731,0.16619 -0.859629,0.30216 -0.884219,0.30216 -0.02459,0 -0.06481,-0.0376 -0.08937,-0.0834 z"
       id="path869"
       inkscape:connector-curvature="0" />
    <path
       style="fill:none;stroke:#000000;stroke-width:0.5291667;stroke-linecap:butt;stroke-linejoin:miter;stroke-miterlimit:4;stroke-dasharray:none;stroke-opacity:1"
       d="M 4.5755291,296.64825 C 4.1708234,284.28333 12.111748,277.38549 22.517898,277.38549 h -0.151079"
       id="path42-3"
       inkscape:connector-curvature="0"
       sodipodi:nodetypes="ccc" />
    <path
       style="fill:#fefefe;fill-opacity:1;stroke:#000000;stroke-width:0.50270832;stroke-linecap:butt;stroke-linejoin:miter;stroke-miterlimit:4;stroke-dasharray:none;stroke-opacity:1"
       d="m 16.52788,271.36138 8.749278,3.65331 v 0 l -7.990827,6.90565 c 0.385353,-3.3997 1.26614,-6.70627 -0.758451,-10.55896 z"
       id="path849"
       inkscape:connector-curvature="0"
       sodipodi:nodetypes="ccccc" />
    <path
       style="fill:#fefefe;stroke:#000000;stroke-width:0.5291667;stroke-linecap:butt;stroke-linejoin:miter;stroke-miterlimit:4;stroke-dasharray:none;stroke-opacity:1;fill-opacity:1"
       d="m 0.70768137,292.88883 c 2.54580833,-1.58228 2.92072193,1.6319 3.82597013,3.67435 v 0 0"
       id="path903"
       inkscape:connector-curvature="0"
       sodipodi:nodetypes="cccc" />
  </g>
</svg>
